<?xml version="1.0" encoding="UTF-8" standalone="no"?>
<!-- Created with Inkscape (http://www.inkscape.org/) -->

<svg
   width="260.4718"
   height="266.98618"
   viewBox="0 0 68.916497 70.640091"
   version="1.1"
   id="svg1"
   xml:space="preserve"
   xmlns:xlink="http://www.w3.org/1999/xlink"
   xmlns="http://www.w3.org/2000/svg"
   xmlns:svg="http://www.w3.org/2000/svg">
    <defs
   id="defs1"><linearGradient
     id="linearGradient1"><stop
       style="stop-color:#000000;stop-opacity:1;"
       offset="0"
       id="stop1" /><stop
       style="stop-color:#ffffff;stop-opacity:1;"
       offset="0.5"
       id="stop11" /><stop
       style="stop-color:#000000;stop-opacity:1;"
       offset="1"
       id="stop2" /></linearGradient><filter
     style="color-interpolation-filters:sRGB"
     id="filter7"
     x="-0.043482855"
     y="-0.043482855"
     width="1.0869657"
     height="1.0869657">
        <feGaussianBlur
   stdDeviation="1.0935985"
   id="feGaussianBlur7" />
      </filter><filter
     style="color-interpolation-filters:sRGB"
     id="filter9"
     x="-0.40715524"
     y="-0.0096836599"
     width="1.8143105"
     height="1.0193673">
        <feGaussianBlur
   stdDeviation="0.25483676"
   id="feGaussianBlur9" />
      </filter><filter
     style="color-interpolation-filters:sRGB"
     id="filter10"
     x="-1.30152"
     y="-0.052764294"
     width="3.60304"
     height="1.1055286">
        <feGaussianBlur
   stdDeviation="1.3885537"
   id="feGaussianBlur10" />
      </filter><filter
     style="color-interpolation-filters:sRGB"
     id="filter12"
     x="-0.24127328"
     y="-0.0097813436"
     width="1.4825466"
     height="1.0195627">
        <feGaussianBlur
   stdDeviation="0.25740743"
   id="feGaussianBlur12" />
      </filter><meshgradient
     id="meshgradient3"
     gradientUnits="userSpaceOnUse"
     x="80.506691"
     y="126.01503"
     gradientTransform="translate(-68.464666,-113.1112)">
        <meshrow
   id="meshrow10">
          <meshpatch
   id="meshpatch10">
            <stop
   path="c 12.3801,-12.3801  32.4523,-12.3801  44.8324,0"
   style="stop-color:#ffffff;stop-opacity:1"
   id="stop3" />
            <stop
   path="c 12.3801,12.3801  12.3801,32.4523  0,44.8324"
   style="stop-color:#050609;stop-opacity:1"
   id="stop8" />
            <stop
   path="c -12.3801,12.3801  -32.4523,12.3801  -44.8324,0"
   style="stop-color:#ffffff;stop-opacity:1"
   id="stop9" />
            <stop
   path="c -12.3801,-12.3801  -12.3801,-32.4523  -1.42109e-14,-44.8324"
   style="stop-color:#050609;stop-opacity:1"
   id="stop10" />
          </meshpatch>
        </meshrow>
      </meshgradient><linearGradient
     xlink:href="#linearGradient1"
     id="linearGradient2"
     x1="66.142975"
     y1="3.7525134"
     x2="2.7847667"
     y2="66.760971"
     gradientUnits="userSpaceOnUse" /></defs>
    <circle
   style="display:inline;fill:#0d0f17;fill-opacity:1;stroke:url(#meshgradient3);stroke-width:0.264583;stroke-linecap:square;stroke-dasharray:none;filter:url(#filter7)"
   id="path2"
   cx="34.458248"
   cy="35.320042"
   r="31.701321" /><circle
   style="display:inline;fill:#050609;fill-opacity:1;stroke:url(#linearGradient2);stroke-width:0.264583;stroke-linecap:square;stroke-dasharray:none"
   id="circle7"
   cx="34.458248"
   cy="35.320042"
   r="31.701321" /><path
   id="rect2"
   style="display:inline;fill:#99e1f3;fill-opacity:1;stroke-width:0.311659;stroke-linecap:square"
   d="m 34.458244,3.3714888 c 0,0 1.28024,21.2903002 1.28024,31.9485702 0,10.65826 -1.28024,31.94856 -1.28024,31.94856 0,0 -1.28025,-21.2903 -1.28025,-31.94856 0,-10.65827 1.28025,-31.9485702 1.28025,-31.9485702 z" /><path
   id="path4"
   style="display:inline;mix-blend-mode:normal;fill:#2ad7ff;fill-opacity:1;stroke-width:0.309853;stroke-linecap:square;filter:url(#filter10)"
   d="m 102.92291,116.85186 c 0,0 1.28024,21.04428 1.28024,31.5794 0,10.53511 -1.28024,31.57939 -1.28024,31.57939 0,0 -1.28025,-21.04428 -1.28025,-31.57939 0,-10.53512 1.28025,-31.5794 1.28025,-31.5794 z"
   transform="matrix(1,0,0,1.01169,-68.464666,-114.84637)" /><path
   id="path12"
   style="display:inline;mix-blend-mode:normal;fill:#2ad7ff;fill-opacity:1;stroke-width:0.309853;stroke-linecap:square;filter:url(#filter12)"
   d="m 102.92291,116.85186 c 0,0 1.28024,21.04428 1.28024,31.5794 0,10.53511 -1.28024,31.57939 -1.28024,31.57939 0,0 -1.28025,-21.04428 -1.28025,-31.57939 0,-10.53512 1.28025,-31.5794 1.28025,-31.5794 z"
   transform="matrix(1,0,0,1.01169,-68.464666,-114.84637)" /><path
   id="path3"
   style="display:inline;mix-blend-mode:normal;fill:#ffffff;fill-opacity:1;stroke-width:0.309853;stroke-linecap:square;filter:url(#filter9)"
   d="m 102.92291,116.85186 c 0,0 0.75107,21.04428 0.75107,31.5794 0,10.53511 -0.75107,31.57939 -0.75107,31.57939 0,0 -0.75108,-21.04428 -0.75108,-31.57939 0,-10.53512 0.75108,-31.5794 0.75108,-31.5794 z"
   transform="matrix(0.89857336,0,0,0.58969193,-58.025532,-52.802987)" /><path
   id="path11"
   style="display:inline;mix-blend-mode:normal;fill:#ffffff;fill-opacity:1;stroke-width:0.309853;stroke-linecap:square;filter:url(#filter9)"
   d="m 102.92291,116.85186 c 0,0 0.75107,21.04428 0.75107,31.5794 0,10.53511 -0.75107,31.57939 -0.75107,31.57939 0,0 -0.75108,-21.04428 -0.75108,-31.57939 0,-10.53512 0.75108,-31.5794 0.75108,-31.5794 z"
   transform="matrix(0.89857336,0,0,0.58969193,-58.025532,-52.929033)" />
  </svg>
