<?xml version="1.0" encoding="UTF-8" standalone="no"?>
  <!-- Created with Inkscape (http://www.inkscape.org/) -->
  <svg width="381.3905" height="381.39047" viewBox="0 0 100.90957 100.90956" version="1.1" id="svg1" xml:space="preserve" xmlns:xlink="http://www.w3.org/1999/xlink" xmlns="http://www.w3.org/2000/svg" xmlns:svg="http://www.w3.org/2000/svg">
    <defs id="defs1">
      <linearGradient id="linearGradient1">
        <stop style="stop-color:#131519;stop-opacity:1;" offset="0" id="stop1" />
        <stop style="stop-color:#060709;stop-opacity:1;" offset="1" id="stop2" />
      </linearGradient>
      <linearGradient xlink:href="#linearGradient1" id="linearGradient2" x1="133.58231" y1="106.60433" x2="133.58231" y2="115.80991" gradientUnits="userSpaceOnUse" gradientTransform="matrix(10.182992,0,0,10.182992,-1257.3446,-984.92115)" />
      <meshgradient id="meshgradient4" gradientUnits="userSpaceOnUse" x="80.506691" y="126.01503">
        <meshrow id="meshrow4">
          <meshpatch id="meshpatch4">
            <stop path="c 12.3801,-12.3801  32.4523,-12.3801  44.8324,0" style="stop-color:#ffffff;stop-opacity:1" id="stop4" />
            <stop path="c 12.3801,12.3801  12.3801,32.4523  0,44.8324" style="stop-color:#050609;stop-opacity:1" id="stop5" />
            <stop path="c -12.3801,12.3801  -32.4523,12.3801  -44.8324,0" style="stop-color:#ffffff;stop-opacity:1" id="stop6" />
            <stop path="c -12.3801,-12.3801  -12.3801,-32.4523  -1.42109e-14,-44.8324" style="stop-color:#050609;stop-opacity:1" id="stop7" />
          </meshpatch>
        </meshrow>
      </meshgradient>
      <filter style="color-interpolation-filters:sRGB" id="filter7" x="-0.043482855" y="-0.043482855" width="1.0869657" height="1.0869657">
        <feGaussianBlur stdDeviation="1.0935985" id="feGaussianBlur7" />
      </filter>
      <filter style="color-interpolation-filters:sRGB" id="filter9" x="-0.40715524" y="-0.0096836599" width="1.8143105" height="1.0193673">
        <feGaussianBlur stdDeviation="0.25483676" id="feGaussianBlur9" />
      </filter>
      <filter style="color-interpolation-filters:sRGB" id="filter10" x="-1.30152" y="-0.052764294" width="3.60304" height="1.1055286">
        <feGaussianBlur stdDeviation="1.3885537" id="feGaussianBlur10" />
      </filter>
      <filter style="color-interpolation-filters:sRGB" id="filter12" x="-0.24127328" y="-0.0097813436" width="1.4825466" height="1.0195627">
        <feGaussianBlur stdDeviation="0.25740743" id="feGaussianBlur12" />
      </filter>
      <filter style="color-interpolation-filters:sRGB" id="filter15" x="-0.027756231" y="-0.027756233" width="1.0555125" height="1.0555125">
        <feGaussianBlur stdDeviation="1.1056514" id="feGaussianBlur15" />
      </filter>
      <linearGradient xlink:href="#linearGradient1" id="linearGradient3" gradientUnits="userSpaceOnUse" gradientTransform="matrix(10.182992,0,0,10.182992,-1257.3446,-984.92115)" x1="133.58231" y1="106.60433" x2="133.58231" y2="115.80991" />
      <meshgradient id="meshgradient3" gradientUnits="userSpaceOnUse" x="80.506691" y="126.01503">
        <meshrow id="meshrow10">
          <meshpatch id="meshpatch10">
            <stop path="c 12.3801,-12.3801  32.4523,-12.3801  44.8324,0" style="stop-color:#ffffff;stop-opacity:1" id="stop3" />
            <stop path="c 12.3801,12.3801  12.3801,32.4523  0,44.8324" style="stop-color:#050609;stop-opacity:1" id="stop8" />
            <stop path="c -12.3801,12.3801  -32.4523,12.3801  -44.8324,0" style="stop-color:#ffffff;stop-opacity:1" id="stop9" />
            <stop path="c -12.3801,-12.3801  -12.3801,-32.4523  -1.42109e-14,-44.8324" style="stop-color:#050609;stop-opacity:1" id="stop10" />
          </meshpatch>
        </meshrow>
      </meshgradient>
    </defs>
    <g id="layer1" transform="translate(-52.467962,-97.976297)">
      <rect style="display:none;fill:url(#linearGradient3);stroke-width:3.18727;stroke-linecap:square" id="rect1" width="95.602692" height="95.602692" x="55.121525" y="100.62986" />
      <circle style="display:inline;fill:#0d0f17;fill-opacity:1;stroke:url(#meshgradient3);stroke-width:0.264583;stroke-linecap:square;stroke-dasharray:none;filter:url(#filter7)" id="path2" cx="102.92291" cy="148.43124" r="31.701321" />
      <circle style="display:inline;fill:#050609;fill-opacity:1;stroke:url(#meshgradient4);stroke-width:0.264583;stroke-linecap:square;stroke-dasharray:none" id="circle7" cx="102.92291" cy="148.43124" r="31.701321" />
      <path id="path13" style="display:none;opacity:1;fill:#ffffff;fill-opacity:1;stroke-width:0.309853;stroke-linecap:square" d="m 102.92291,116.85186 c 0,0 1.28024,21.04428 1.28024,31.5794 0,10.53511 -1.28024,31.57939 -1.28024,31.57939 0,0 -1.28025,-21.04428 -1.28025,-31.57939 0,-10.53512 1.28025,-31.5794 1.28025,-31.5794 z" />
      <path id="rect2" style="display:inline;fill:#99e1f3;fill-opacity:1;stroke-width:0.311659;stroke-linecap:square" d="m 102.92291,116.48269 c 0,0 1.28024,21.2903 1.28024,31.94857 0,10.65826 -1.28024,31.94856 -1.28024,31.94856 0,0 -1.28025,-21.2903 -1.28025,-31.94856 0,-10.65827 1.28025,-31.94857 1.28025,-31.94857 z" />
      <path id="path4" style="display:inline;opacity:1;mix-blend-mode:normal;fill:#2ad7ff;fill-opacity:1;stroke-width:0.309853;stroke-linecap:square;filter:url(#filter10)" d="m 102.92291,116.85186 c 0,0 1.28024,21.04428 1.28024,31.5794 0,10.53511 -1.28024,31.57939 -1.28024,31.57939 0,0 -1.28025,-21.04428 -1.28025,-31.57939 0,-10.53512 1.28025,-31.5794 1.28025,-31.5794 z" transform="matrix(1,0,0,1.01169,0,-1.7351745)" />
      <path id="path12" style="display:inline;opacity:1;mix-blend-mode:normal;fill:#2ad7ff;fill-opacity:1;stroke-width:0.309853;stroke-linecap:square;filter:url(#filter12)" d="m 102.92291,116.85186 c 0,0 1.28024,21.04428 1.28024,31.5794 0,10.53511 -1.28024,31.57939 -1.28024,31.57939 0,0 -1.28025,-21.04428 -1.28025,-31.57939 0,-10.53512 1.28025,-31.5794 1.28025,-31.5794 z" transform="matrix(1,0,0,1.01169,0,-1.7351745)" />
      <path id="path3" style="display:inline;mix-blend-mode:normal;fill:#ffffff;fill-opacity:1;stroke-width:0.309853;stroke-linecap:square;filter:url(#filter9)" d="m 102.92291,116.85186 c 0,0 0.75107,21.04428 0.75107,31.5794 0,10.53511 -0.75107,31.57939 -0.75107,31.57939 0,0 -0.75108,-21.04428 -0.75108,-31.57939 0,-10.53512 0.75108,-31.5794 0.75108,-31.5794 z" transform="matrix(0.89857336,0,0,0.58969193,10.439134,60.308214)" />
      <path id="path11" style="display:inline;mix-blend-mode:normal;fill:#ffffff;fill-opacity:1;stroke-width:0.309853;stroke-linecap:square;filter:url(#filter9)" d="m 102.92291,116.85186 c 0,0 0.75107,21.04428 0.75107,31.5794 0,10.53511 -0.75107,31.57939 -0.75107,31.57939 0,0 -0.75108,-21.04428 -0.75108,-31.57939 0,-10.53512 0.75108,-31.5794 0.75108,-31.5794 z" transform="matrix(0.89857336,0,0,0.58969193,10.439134,60.182168)" />
      <path id="rect14" style="display:inline;fill:#000000;stroke-width:3.18727;stroke-linecap:square;filter:url(#filter15)" d="m 55.121525,100.62986 v 95.60243 h 95.602435 v -95.60243 z m 47.801215,16.10031 a 31.701321,31.701321 0 0 1 31.70143,31.70091 31.701321,31.701321 0 0 1 -31.70143,31.70142 31.701321,31.701321 0 0 1 -31.700906,-31.70142 31.701321,31.701321 0 0 1 31.700906,-31.70091 z" />
      <path id="path14" style="fill:url(#linearGradient2);stroke-width:3.18727;stroke-linecap:square" d="m 55.121525,100.62986 v 95.60243 H 150.72396 V 100.62986 Z M 102.92274,116.201 c 17.50804,-6e-5 32.23037,14.72204 32.2306,32.23008 5e-5,17.50824 -14.72236,32.23065 -32.2306,32.23059 -17.508033,-2.3e-4 -32.230127,-14.72256 -32.230073,-32.23059 2.27e-4,-17.50783 14.722239,-32.22985 32.230073,-32.23008 z" />
    </g>
  </svg>
